<svg width="79" height="74" viewBox="0 0 79 74" fill="none" xmlns="http://www.w3.org/2000/svg">
<path d="M48.1667 3.08331V24.6666H69.75M14.25 64V70.9166H69.75V21.5833L60.5 12.3333L51.25 3.08331H14.25V29" stroke="url(#paint0_linear_147_199)" stroke-width="6"/>
<path d="M31.3892 35.7272L36.5938 52.7727H36.7869L41.9915 35.7272H48.2869L40.4347 59H32.946L25.0938 35.7272H31.3892Z" fill="url(#paint1_linear_147_199)"/>
<path d="M22.8864 44.1591H17.2045C17.1288 43.5757 16.9735 43.0492 16.7386 42.5795C16.5038 42.1098 16.1932 41.7083 15.8068 41.375C15.4204 41.0416 14.9621 40.7878 14.4318 40.6136C13.9091 40.4318 13.3295 40.3409 12.6932 40.3409C11.5644 40.3409 10.5909 40.6174 9.77272 41.1704C8.96211 41.7235 8.33711 42.5227 7.89772 43.5681C7.4659 44.6136 7.24999 45.8788 7.24999 47.3636C7.24999 48.9091 7.46969 50.2045 7.90908 51.25C8.35605 52.2878 8.98105 53.0719 9.78408 53.6022C10.5947 54.125 11.553 54.3863 12.6591 54.3863C13.2803 54.3863 13.8447 54.3068 14.3523 54.1477C14.8674 53.9886 15.3182 53.7575 15.7045 53.4545C16.0985 53.1439 16.4204 52.7689 16.6704 52.3295C16.928 51.8825 17.106 51.3788 17.2045 50.8181L22.8864 50.8522C22.7879 51.8825 22.4886 52.8977 21.9886 53.8977C21.4962 54.8977 20.8182 55.8106 19.9545 56.6363C19.0909 57.4545 18.0379 58.106 16.7954 58.5909C15.5606 59.0757 14.1439 59.3181 12.5454 59.3181C10.4394 59.3181 8.55302 58.856 6.88635 57.9318C5.22726 57 3.91666 55.6439 2.95453 53.8636C1.99241 52.0833 1.51135 49.9166 1.51135 47.3636C1.51135 44.803 1.99999 42.6325 2.97726 40.8522C3.95453 39.0719 5.2765 37.7197 6.94317 36.7954C8.60984 35.8712 10.4773 35.4091 12.5454 35.4091C13.9545 35.4091 15.2576 35.606 16.4545 36C17.6515 36.3863 18.7045 36.9545 19.6136 37.7045C20.5227 38.4469 21.2614 39.3598 21.8295 40.4431C22.3977 41.5265 22.75 42.7651 22.8864 44.1591Z" fill="url(#paint2_linear_147_199)"/>
<defs>
<linearGradient id="paint0_linear_147_199" x1="14" y1="1" x2="72" y2="73.5" gradientUnits="userSpaceOnUse">
<stop stop-color="#DA107B"/>
<stop offset="1" stop-color="#01ECF3"/>
</linearGradient>
<linearGradient id="paint1_linear_147_199" x1="36.2445" y1="16.8348" x2="76.9138" y2="59.2102" gradientUnits="userSpaceOnUse">
<stop stop-color="#DA107B"/>
<stop offset="1" stop-color="#01ECF3"/>
</linearGradient>
<linearGradient id="paint2_linear_147_199" x1="11.788" y1="16" x2="53.5095" y2="54.9975" gradientUnits="userSpaceOnUse">
<stop stop-color="#DA107B"/>
<stop offset="1" stop-color="#01ECF3"/>
</linearGradient>
</defs>
</svg>
