<svg width="245" height="245" viewBox="0 0 245 245" fill="none" xmlns="http://www.w3.org/2000/svg">
<path fill-rule="evenodd" clip-rule="evenodd" d="M109.413 164.288C110.238 161.652 108.752 158.876 106.245 157.719C103.201 156.314 100.362 154.525 97.7936 152.403C94.5904 149.756 91.8085 146.592 89.5769 143.01C84.6702 135.133 82.7498 125.759 84.1643 116.588C85.5787 107.416 90.2343 99.0559 97.2861 93.0237C104.338 86.9916 113.319 83.6874 122.598 83.7109C131.878 83.7344 140.842 87.0839 147.863 93.1517C154.884 99.2194 159.498 107.603 160.866 116.782C162.234 125.96 160.266 135.325 155.319 143.176C153.068 146.749 150.268 149.901 147.049 152.533C144.471 154.639 141.625 156.413 138.577 157.801C136.064 158.945 134.564 161.714 135.376 164.353L148.38 206.622C150.004 211.901 155.626 214.911 160.712 212.758C169.272 209.134 177.24 204.324 184.393 198.499C192.585 191.827 199.708 183.824 205.428 174.745C217.927 154.906 222.899 131.243 219.442 108.051C215.986 84.8587 204.329 63.6743 186.588 48.3423C168.846 33.0102 146.196 24.5466 122.748 24.4872C99.3 24.4279 76.6075 32.7769 58.7889 48.0189C40.9703 63.261 29.2065 84.3861 25.6324 107.56C22.0583 130.735 26.9108 154.422 39.3092 174.325C44.9831 183.433 52.0654 191.472 60.2233 198.185C67.3467 204.046 75.2902 208.896 83.8325 212.563C88.9074 214.742 94.5448 211.761 96.1955 206.49L109.413 164.288Z" fill="url(#paint0_linear_103_291)"/>
<defs>
<linearGradient id="paint0_linear_103_291" x1="93.8137" y1="28.7787" x2="91.965" y2="212.827" gradientUnits="userSpaceOnUse">
<stop stop-color="#01ECF3"/>
<stop offset="1" stop-color="#DA107B"/>
</linearGradient>
</defs>
</svg>
